<svg height="512pt" viewBox="-56 0 512 512" width="512pt" xmlns="http://www.w3.org/2000/svg"><path d="m218.503906 91.042969-6.007812-13.742188c11.847656-5.179687 19.503906-16.875 19.503906-29.800781 0-17.921875-14.578125-32.5-32.5-32.5s-32.5 14.578125-32.5 32.5c0 12.925781 7.652344 24.621094 19.5 29.796875l-6.007812 13.746094c-17.308594-7.5625-28.492188-24.65625-28.492188-43.542969 0-26.191406 21.308594-47.5 47.5-47.5s47.5 21.308594 47.5 47.5c0 18.890625-11.1875 35.980469-28.496094 43.542969zm0 0"/><path d="m180.25 127v-57.75c0-10.632812 8.617188-19.25 19.25-19.25s19.25 8.617188 19.25 19.25v57.75" fill="#00e9cc"/><path d="m199.5 512c-110.003906 0-199.5-89.496094-199.5-199.5s89.496094-199.5 199.5-199.5 199.5 89.496094 199.5 199.5-89.496094 199.5-199.5 199.5zm0-384c-101.734375 0-184.5 82.765625-184.5 184.5s82.765625 184.5 184.5 184.5 184.5-82.765625 184.5-184.5-82.765625-184.5-184.5-184.5zm0 0"/><path d="m199.5 480c-92.359375 0-167.5-75.140625-167.5-167.5s75.140625-167.5 167.5-167.5 167.5 75.140625 167.5 167.5c0 32.691406-9.421875 64.367188-27.25 91.605469l-12.550781-8.210938c16.226562-24.792969 24.800781-53.628906 24.800781-83.394531 0-84.089844-68.410156-152.5-152.5-152.5s-152.5 68.410156-152.5 152.5 68.410156 152.5 152.5 152.5c40.160156 0 78.074219-15.480469 106.75-43.59375l10.5 10.710938c-31.496094 30.878906-73.136719 47.882812-117.25 47.882812zm0 0"/><path d="m192 216.5h15v48h-15zm0 0"/><path d="m192 176h15v16h-15zm0 0"/><path d="m192 432h15v16h-15zm0 0"/><path d="m319.5 305h16v15h-16zm0 0"/><path d="m63.5 305h16v15h-16zm0 0"/><path d="m192 360.5h15v48h-15zm0 0"/><path d="m247.5 305h48v15h-48zm0 0"/><path d="m103.5 305h48v15h-48zm0 0"/><path d="m236.804688 339.191406 56.566406 56.570313-10.605469 10.605469-56.566406-56.570313zm0 0"/><path d="m116.234375 218.625 56.570313 56.570312-10.609376 10.605469-56.566406-56.570312zm0 0"/><path d="m235.667969 348.667969-126.585938 54.25 54.25-126.585938 126.585938-54.25zm0 0" fill="#00e9cc"/><path d="m284.804688 237.804688-10.609376-10.609376-64.246093 64.25c-3.207031-1.597656-6.761719-2.445312-10.449219-2.445312-6.277344 0-12.179688 2.445312-16.617188 6.882812s-6.882812 10.339844-6.882812 16.617188c0 3.6875.847656 7.242188 2.445312 10.449219l-64.25 64.246093 10.609376 10.609376 64.246093-64.25c3.207031 1.597656 6.761719 2.445312 10.449219 2.445312 6.277344 0 12.179688-2.445312 16.617188-6.882812s6.882812-10.339844 6.882812-16.617188c0-3.6875-.847656-7.242188-2.445312-10.449219zm-79.292969 80.707031c-1.605469 1.601562-3.742188 2.488281-6.011719 2.488281s-4.402344-.882812-6.011719-2.488281c-1.605469-1.605469-2.488281-3.742188-2.488281-6.011719s.882812-4.40625 2.488281-6.011719c1.605469-1.601562 3.742188-2.488281 6.011719-2.488281s4.402344.882812 6.011719 2.488281c1.605469 1.605469 2.488281 3.742188 2.488281 6.011719s-.882812 4.40625-2.488281 6.011719zm0 0"/></svg>